<svg xmlns="http://www.w3.org/2000/svg" viewBox="-3 -3 30 30"><rect x="-3" y="-3" width="30" height="30" fill="#111827"/><circle cx="17" cy="5" r="2.8" fill="#facc15"/><g stroke="#facc15" stroke-width="1.6" stroke-linecap="round"><line x1="21.40" y1="5.00" x2="23.20" y2="5.00"/><line x1="20.11" y1="8.11" x2="21.38" y2="9.38"/><line x1="17.00" y1="9.40" x2="17.00" y2="11.20"/><line x1="13.89" y1="8.11" x2="12.62" y2="9.38"/><line x1="12.60" y1="5.00" x2="10.80" y2="5.00"/><line x1="13.89" y1="1.89" x2="12.62" y2="0.62"/><line x1="17.00" y1="0.60" x2="17.00" y2="-1.20"/><line x1="20.11" y1="1.89" x2="21.38" y2="0.62"/></g><path transform="translate(-1.5 -4)" d="M7.5 19H17a4 4 0 0 0 .6-7.95A5.5 5.5 0 0 0 7.1 10.6a4.2 4.2 0 0 0 .4 8.4Z" fill="#cbd5e1"/><g stroke="#60a5fa" stroke-width="1.8" stroke-linecap="round"><line x1="7" y1="17" x2="5.7" y2="21.5"/><line x1="11.5" y1="17" x2="10.2" y2="21.5"/><line x1="16" y1="17" x2="14.7" y2="21.5"/></g></svg>
